<?xml version="1.0" encoding="UTF-8"?>
<!DOCTYPE svg PUBLIC "-//W3C//DTD SVG 1.1//EN" "http://www.w3.org/Graphics/SVG/1.1/DTD/svg11.dtd">
<svg xmlns="http://www.w3.org/2000/svg" version="1.1" width="60px" height="68px" style="shape-rendering:geometricPrecision; text-rendering:geometricPrecision; image-rendering:optimizeQuality; fill-rule:evenodd; clip-rule:evenodd" xmlns:xlink="http://www.w3.org/1999/xlink">
<g><path style="opacity:0.972" fill="#ff6260" d="M 25.5,8.5 C 47.8307,8.99464 57.9973,20.328 56,42.5C 50.6064,57.2236 40.1064,63.7236 24.5,62C 11.168,58.1664 3.8347,49.3331 2.5,35.5C 4.15516,21.191 11.8218,12.191 25.5,8.5 Z M 26.5,16.5 C 37.7238,15.9194 44.7238,20.9194 47.5,31.5C 35.7827,35.6076 24.1161,35.4409 12.5,31C 12.0426,30.586 11.7093,30.086 11.5,29.5C 14.4092,22.5804 19.4092,18.2471 26.5,16.5 Z M 47.5,38.5 C 48.3764,38.3691 49.0431,38.7025 49.5,39.5C 48.3586,45.383 46.6919,45.7163 44.5,40.5C 45.6016,39.8243 46.6016,39.1577 47.5,38.5 Z M 11.5,39.5 C 14.5688,39.963 15.0688,41.2963 13,43.5C 11.8118,42.4366 11.3118,41.1033 11.5,39.5 Z M 25.5,42.5 C 32.783,40.976 38.1163,43.476 41.5,50C 35.8033,54.6355 29.47,55.6355 22.5,53C 20.7774,52.4768 19.444,51.4768 18.5,50C 20.3483,46.9871 22.6817,44.4871 25.5,42.5 Z"/></g>
</svg>
